<?xml version="1.0" encoding="UTF-8" standalone="no"?>
<svg
   xmlns:dc="http://purl.org/dc/elements/1.1/"
   xmlns:cc="http://creativecommons.org/ns#"
   xmlns:rdf="http://www.w3.org/1999/02/22-rdf-syntax-ns#"
   xmlns:svg="http://www.w3.org/2000/svg"
   xmlns="http://www.w3.org/2000/svg"
   xmlns:sodipodi="http://sodipodi.sourceforge.net/DTD/sodipodi-0.dtd"
   xmlns:inkscape="http://www.inkscape.org/namespaces/inkscape"
   width="2.57667in"
   height="2.13667in"
   viewBox="0 0 773 641"
   version="1.1"
   id="svg3"
   sodipodi:docname="coyotelogo02.svg"
   inkscape:version="0.92.3 (2405546, 2018-03-11)">
  <metadata
     id="metadata9">
    <rdf:RDF>
      <cc:Work
         rdf:about="">
        <dc:format>image/svg+xml</dc:format>
        <dc:type
           rdf:resource="http://purl.org/dc/dcmitype/StillImage" />
        <dc:title />
      </cc:Work>
    </rdf:RDF>
  </metadata>
  <defs
     id="defs7" />
  <sodipodi:namedview
     pagecolor="#ffffff"
     bordercolor="#666666"
     borderopacity="1"
     objecttolerance="10"
     gridtolerance="10"
     guidetolerance="10"
     inkscape:pageopacity="0"
     inkscape:pageshadow="2"
     inkscape:window-width="1920"
     inkscape:window-height="1001"
     id="namedview5"
     showgrid="false"
     inkscape:zoom="2"
     inkscape:cx="-30.65125"
     inkscape:cy="59.792645"
     inkscape:window-x="-9"
     inkscape:window-y="-9"
     inkscape:window-maximized="1"
     inkscape:current-layer="svg3" />
  <path
     id="Auswahl"
     d="m 271.95311,3 c 0,17.03 10.19431,27.24 4.91431,43 -6.95,20.8 -10.38742,46.95 -21.28742,66 l -8.93,15 c -8.75,13.12 -14.71,19.53 -17.65,36 8.05,3.04 9.33,2.13 16,4.04 15.73,4.5 26.25,7.65 41,15.22 8.52,4.37 13.68,8.26 21,14.35 3.78,3.15 5.67,6.16 10,8.39 0.09,-31.29 28.2,-56.45 55,-68 l -1.8,-12 C 364.11,93.27 352.36,52.8 331.13,28 322.04,17.39 286.34311,5.26 271.95311,3 Z M 485.8282,15.789335 C 460.80357,24.154006 403.65,60.92 396.22,75 l -9.61,16 c -1.66,2.58 -4.47,6.04 -4.9,9 -0.57,4.01 3.16,17.06 4.04,22 0.43,2.42 0.86,6.43 2.95,8.01 1.65,1.25 5.27,0.99 7.3,0.99 11.72,0.02 20.19,-0.29 32,1.43 L 448,137 V 109 C 447.97,89.4 452.81232,64.580771 469.63529,44.104853 494.13282,24.347686 497.72246,12.796726 485.8282,15.789335 Z M 317,38 c 17.24,13.16 26.38,39.69 31.73,60 l 3.15,15 c 0.46,2.11 1.46,5.53 0.53,7.58 -1.02,2.26 -4.28,3 -6.41,3.76 -4.58,1.65 -6.91,2.88 -11,5.52 -17.06,11.05 -23.36,22.9 -32,29.14 0.38,-8.18 2.69,-15.12 4.08,-23 3.22,-18.32 8.01029,-29.94713 8.84029,-48.397129 L 316,53 c -0.01,-5.12 -1.74,-10.69 1,-15 z m 58,229 c -7.99,-24.43 -12.96,-56.48 11,-74.07 6.12,-4.5 10.9,-6.24 18,-8.42 4.89,-1.51 15.9,-3.45 21,-3.51 h 8 c 23.58,0.04 57.22,12.79 76,26.76 9.85,7.33 15.85,17 23.46,26.24 l 13.05,13.88 c 18.45,18.14 39.84,31.12 63.49,41.27 8.91,3.82 22.6,9.17 32,10.85 l -24,-13.81 c -15.87,-9.7 -32.04,-21.01 -45.34,-34.07 -12.13,-11.94 -23.27,-25.08 -31.35,-40.12 -2.98,-5.54 -5.51,-12.1 -7.73,-18 -0.96,-2.53 -5.2161,-4.9039 -6.8561,-6.7539 -7.31162,-9.7933 -6.14984,-6.26376 -22.0885,-17.13869 l -20.92056,-15.752 C 451.13484,140.72541 447.46,149.7 413,147.51 c -3.76,-0.24 -8.22,0.71 -12,1.21 l -12,1.87 c -19.72,5.47 -37.55,19.03 -46.73,37.41 -3.13,6.27 -5.18,13.98 -5.12,21 v 14 c 2.13,13.45 11.38,26.57 21.85,34.79 4.82,3.78 10.13,7.36 16,9.21 z M 57,284 85,279 C 67.07,296.93 54.109139,317.42258 43.349139,340.64258 35.689139,357.17258 31.03,377.83 31,396 v 25 c 0,2.79 -0.37,7.08 1.74,9.19 2.47,2.48 10.69,3.17 14.26,3.68 l 14,2.7 19.039713,-19.69632 12.754545,18.24546 c 28.800002,-0.04 45.073112,3.38402 70.953112,-9.14598 C 159.96363,413.12057 222.96,406.72 231,401.33 234.3,399.12 207.12053,390.51828 209.23053,387.14828 213.17053,380.85828 245.08,376.23 245,369 244.79,351.33 233.97,335.11 221.83,323.05 217.31,318.56 209.93,314.32 207,309 h 20 l 10,-1.05 h 8 l 8,-1.81 11,-1.46 c 14.08,-2.47 -11.42235,-19.57345 1.70765,-25.20345 6.59,-2.83 58.48235,2.76345 64.29235,-1.38655 2.17,-1.54 6.85,-4.74 7.77,-7.18 1.03,-2.76 -1.64,-7.28 -2.77,-9.91 -4.11,-9.52 -9.31,-16.97 -15.8,-25 -19.45,-24.05 -47.23,-39.18 -76.2,-48.61 -6.81,-2.22 -25.35,-7.13 -32,-7.12 -4.34,0.01 -10.07,3.52 -14,5.48 l -30,15.85 c -29.17,17.26 -58.23,35.09 -84,57.27 -8.1,6.97 -19.93,16.66 -26,25.13 z m 376,-37 c 10.23,14.28 31.71,22.92 49,23 h 8 l 12,-16 v 0 c -3.42,-3.91 -7.35,-5.99 -12,-8.22 -18.89,-9.01 -38.27,-6.68 -57,1.22 z m 237,63 c 6.97,15.64 2.62713,23.44057 3.88713,41.92057 C 657.45139,392.52057 638.02,418.47 605,429.51 L 584,436 c 6.06,2.4 25.03,-0.86 32,-2.2 33.35,-6.38 65.68,-21.8 85.11,-50.8 5.53,-8.26 8.94394,-35.23865 8.81392,-45.08865 C 704.85251,326.37451 688.14,312.56 670,310 Z M 232,421 c -32.37,21.07 -61.02856,38.80201 -99.19856,42.88201 L 109,459 H 88 L 50,454.87 37,453 c 2.28,9.75 11.03,27.08 16.15,36 23.77,41.43 59.25,72.42 106.85,82 -2.38,-10.16 -10.24687,-11.33313 -10.29687,-22.70313 -0.08,-17.95 -33.534,-30.98401 -21.61651,-31.75653 5.4,2.81 34.59338,11.52966 37.77338,16.45966 3.91,6.04 8.45,11.69 13.31,17 12.88,14.07 42.07,32.61 60.83,37 l -8.26,-11 c -5.51,-7.37 -9.7,-13.78 -13.88,-22 -13.03,-25.67 -14.34,-53.44 -7.49,-81 2.95,-11.83 7.73,-24.21 13.41,-35 2.32,-4.4 8.51,-12.39 8.22,-17 z m 68,65 48.00718,-13.60287 c -1.91,6 -23.51517,28.49517 -26.33517,34.28517 C 316.68201,516.9323 306.14,522.56 306,534 c -0.51,43.49 34.47,72.2 72,86.83 12.38,4.83 23.07,6.98 36,9.25 8.92,1.57 17.9,2.91 27,2.92 h 28 l 32,-2.29 20,-2.71 c -3.39,-1.35 -14.85,-1.85 -19,-2.04 l -20,-2.24 c -30.39,-4 -71.95,-16.11 -92.72,-39.73 -27.05,-30.77 -25.95258,-71.92 3.49742,-96.98 C 422.05742,462.1 476.63,449.41 514,443.25 l 11,-2.08 16,-1.34 c 7.05,-0.76 4.99,-1.8 15,-1.83 -3.88,-3.11 -16.66,-5.35 -22,-6.25 -13.76,-2.31 -90.32323,-21.19794 -112.66205,-37.79073 L 465.73397,421.58059 436,427.83 c -35.55,3.56 -66.78,12.51 -98,30.32 -10.87,6.2 -30.29,18.51 -38,27.85 z"
     inkscape:connector-curvature="0"
     style="fill:#f9f9f9;fill-opacity:1;stroke:#000000;stroke-width:1"
     sodipodi:nodetypes="cccccccccccccccccccccccccccccccccccccccccccccccccccccccccccccccccscccccccccccccccccccccccccccccccccccccccccccccccccccccccccccccccccccccccccccccccccccc" />
</svg>
